<svg xmlns="http://www.w3.org/2000/svg" width="103.4" height="22" viewBox="0 0 103.4 22" fill="none">
  <path d="M96.9971 13.7866H100.352C100.745 13.7866 101.104 13.8522 101.428 13.9833C101.751 14.1144 102.029 14.2956 102.26 14.527C102.5 14.7506 102.685 15.0167 102.816 15.3251C102.947 15.6336 103.012 15.9691 103.012 16.3316C103.012 16.7866 102.931 17.1606 102.769 17.4536C102.607 17.7467 102.43 17.9819 102.237 18.1593C102.006 18.3675 101.748 18.5294 101.462 18.6451L103.302 21.8841H101.856L100.178 18.8765H98.2695V21.8841H96.9971V13.7866ZM100.352 17.7197C100.76 17.7197 101.092 17.5925 101.347 17.338C101.609 17.0758 101.74 16.7403 101.74 16.3316C101.74 15.9228 101.609 15.5912 101.347 15.3367C101.092 15.0745 100.76 14.9434 100.352 14.9434H98.2695V17.7197H100.352Z" fill="white"/>
  <path d="M89.4707 13.7866H95.1968V15.0012H90.7432V17.0835H94.2714V18.2981H90.7432V20.6695H95.3125V21.8841H89.4707V13.7866Z" fill="white"/>
  <path d="M80.7383 13.7866H83.4567C84.0505 13.7866 84.6019 13.8946 85.1109 14.1105C85.6276 14.3265 86.0749 14.6195 86.4528 14.9897C86.8384 15.3599 87.1391 15.7917 87.3551 16.2853C87.571 16.7711 87.679 17.2878 87.679 17.8354C87.679 18.3829 87.571 18.9035 87.3551 19.397C87.1391 19.8829 86.8384 20.3109 86.4528 20.6811C86.0749 21.0512 85.6276 21.3443 85.1109 21.5602C84.6019 21.7762 84.0505 21.8841 83.4567 21.8841H80.7383V13.7866ZM83.4567 20.7273C83.8732 20.7273 84.2626 20.6541 84.6251 20.5076C84.9875 20.3533 85.2999 20.149 85.5621 19.8945C85.8243 19.6323 86.0286 19.3276 86.1752 18.9806C86.3294 18.6258 86.4065 18.2441 86.4065 17.8354C86.4065 17.4344 86.3294 17.0565 86.1752 16.7017C86.0286 16.347 85.8243 16.0424 85.5621 15.7879C85.2999 15.5257 84.9875 15.3213 84.6251 15.1748C84.2626 15.0205 83.8732 14.9434 83.4567 14.9434H82.0107V20.7273H83.4567Z" fill="white"/>
  <path d="M74.1387 13.7866H75.4111V20.6695H79.3442V21.8841H74.1387V13.7866Z" fill="white"/>
  <path d="M70.5557 13.7866H71.8281V21.8841H70.5557V13.7866Z" fill="white"/>
  <path d="M64.9574 21.9998C64.4484 21.9998 63.9857 21.9188 63.5693 21.7569C63.1528 21.5872 62.7942 21.3559 62.4935 21.0628C62.1927 20.762 61.9575 20.4073 61.7878 19.9986C61.6259 19.5898 61.5449 19.1387 61.5449 18.6451V13.7866H62.8174V18.6451C62.8174 18.9613 62.8714 19.2544 62.9793 19.5243C63.0873 19.7942 63.2377 20.0294 63.4305 20.2299C63.6233 20.4227 63.8508 20.5731 64.113 20.6811C64.3752 20.789 64.6567 20.843 64.9574 20.843C65.2428 20.843 65.5165 20.7852 65.7787 20.6695C66.0409 20.5538 66.2684 20.3996 66.4612 20.2068C66.654 20.0063 66.8083 19.7711 66.924 19.5011C67.0396 19.2312 67.0975 18.9459 67.0975 18.6451V13.7866H68.3699V18.6451C68.3699 19.1387 68.2851 19.5898 68.1154 19.9986C67.9535 20.4073 67.7221 20.762 67.4214 21.0628C67.1206 21.3559 66.762 21.5872 66.3456 21.7569C65.9291 21.9188 65.4664 21.9998 64.9574 21.9998Z" fill="white"/>
  <path d="M53.7959 13.7866H57.0349C57.3973 13.7866 57.7251 13.8445 58.0182 13.9601C58.3189 14.0758 58.5773 14.2301 58.7932 14.4229C59.0091 14.6157 59.1749 14.8432 59.2906 15.1054C59.4063 15.3676 59.4641 15.6413 59.4641 15.9267C59.4641 16.2352 59.4101 16.4896 59.3022 16.6902C59.2019 16.8907 59.0901 17.0565 58.9667 17.1876C58.8279 17.3341 58.666 17.4536 58.4809 17.5462C58.7431 17.6541 58.9744 17.8007 59.1749 17.9858C59.3523 18.14 59.5104 18.3444 59.6492 18.5989C59.7957 18.8456 59.869 19.1503 59.869 19.5127C59.869 19.8289 59.8035 20.1335 59.6724 20.4266C59.5413 20.7119 59.3562 20.9626 59.1171 21.1785C58.8857 21.3944 58.6081 21.5679 58.2842 21.699C57.9603 21.8224 57.6017 21.8841 57.2084 21.8841H53.7959V13.7866ZM57.2084 20.7852C57.6171 20.7852 57.9487 20.6579 58.2032 20.4034C58.4654 20.149 58.5965 19.8328 58.5965 19.4549C58.5965 19.077 58.4654 18.7608 58.2032 18.5063C57.9487 18.2518 57.6171 18.1246 57.2084 18.1246H55.0684V20.7852H57.2084ZM57.0349 17.0835C57.3819 17.0835 57.6596 16.9832 57.8678 16.7827C58.0837 16.5745 58.1917 16.3084 58.1917 15.9845C58.1917 15.6606 58.0837 15.3984 57.8678 15.1979C57.6596 14.9897 57.3819 14.8856 57.0349 14.8856H55.0684V17.0835H57.0349Z" fill="white"/>
  <path d="M40.6113 13.7866H41.7681L44.8336 17.7197L47.8991 13.7866H49.0558V21.8841H47.7834V15.9267L44.8336 19.6862L41.8838 15.9267V21.8841H40.6113V13.7866Z" fill="white"/>
  <path d="M34.5438 21.9998C33.9345 21.9998 33.3677 21.8918 32.8433 21.6759C32.3266 21.4599 31.8755 21.163 31.4899 20.7851C31.112 20.4073 30.8112 19.9677 30.5876 19.4664C30.3716 18.9574 30.2637 18.4137 30.2637 17.8353C30.2637 17.2569 30.3716 16.7171 30.5876 16.2158C30.8112 15.7068 31.112 15.2634 31.4899 14.8855C31.8755 14.5076 32.3266 14.2107 32.8433 13.9948C33.3677 13.7789 33.9345 13.6709 34.5438 13.6709C35.153 13.6709 35.716 13.7789 36.2327 13.9948C36.7571 14.2107 37.2082 14.5076 37.5861 14.8855C37.9717 15.2634 38.2725 15.7068 38.4884 16.2158C38.712 16.7171 38.8239 17.2569 38.8239 17.8353C38.8239 18.4137 38.712 18.9574 38.4884 19.4664C38.2725 19.9677 37.9717 20.4073 37.5861 20.7851C37.2082 21.163 36.7571 21.4599 36.2327 21.6759C35.716 21.8918 35.153 21.9998 34.5438 21.9998ZM34.5438 20.843C34.9602 20.843 35.3497 20.7659 35.7121 20.6116C36.0823 20.4574 36.4023 20.2453 36.6722 19.9754C36.9499 19.6978 37.1658 19.3777 37.32 19.0153C37.4743 18.6451 37.5514 18.2518 37.5514 17.8353C37.5514 17.4189 37.4743 17.0294 37.32 16.667C37.1658 16.2968 36.9499 15.9768 36.6722 15.7068C36.4023 15.4292 36.0823 15.2133 35.7121 15.059C35.3497 14.9048 34.9602 14.8277 34.5438 14.8277C34.1273 14.8277 33.734 14.9048 33.3639 15.059C33.0014 15.2133 32.6813 15.4292 32.4037 15.7068C32.1338 15.9768 31.9217 16.2968 31.7675 16.667C31.6133 17.0294 31.5361 17.4189 31.5361 17.8353C31.5361 18.2518 31.6133 18.6451 31.7675 19.0153C31.9217 19.3777 32.1338 19.6978 32.4037 19.9754C32.6813 20.2453 33.0014 20.4574 33.3639 20.6116C33.734 20.7659 34.1273 20.843 34.5438 20.843Z" fill="white"/>
  <path d="M25.9195 15.0012H23.4902V13.7866H29.6212V15.0012H27.1919V21.8841H25.9195V15.0012Z" fill="white"/>
  <path d="M20.1273 21.9998C19.6337 21.9998 19.2057 21.9381 18.8433 21.8147C18.4808 21.6913 18.1801 21.5525 17.941 21.3982C17.6634 21.2209 17.4281 21.0165 17.2354 20.7851L18.1029 19.9176C18.2263 20.0872 18.3883 20.2415 18.5888 20.3803C18.7584 20.4959 18.9705 20.6039 19.225 20.7042C19.4795 20.7967 19.7803 20.843 20.1273 20.843C20.3895 20.843 20.6209 20.8121 20.8214 20.7504C21.0219 20.681 21.1915 20.5923 21.3304 20.4844C21.4692 20.3687 21.5733 20.2376 21.6427 20.0911C21.7121 19.9445 21.7468 19.7903 21.7468 19.6284C21.7468 19.4047 21.6851 19.2235 21.5617 19.0847C21.4383 18.9381 21.2764 18.8147 21.0759 18.7145C20.8754 18.6142 20.6479 18.5294 20.3934 18.46C20.1389 18.3906 19.8767 18.3173 19.6068 18.2402C19.3368 18.1554 19.0746 18.059 18.8201 17.951C18.5657 17.8353 18.3382 17.6927 18.1376 17.523C17.9371 17.3456 17.7752 17.1297 17.6518 16.8752C17.5284 16.6207 17.4667 16.3045 17.4667 15.9266C17.4667 15.6259 17.5284 15.3405 17.6518 15.0706C17.7829 14.793 17.968 14.5501 18.207 14.3418C18.4461 14.1336 18.7353 13.9717 19.0746 13.856C19.4217 13.7326 19.8111 13.6709 20.243 13.6709C20.6594 13.6709 21.0257 13.7249 21.3419 13.8328C21.6581 13.9408 21.9242 14.0603 22.1401 14.1915C22.3946 14.3457 22.6105 14.5192 22.7879 14.712L21.9203 15.5796C21.7969 15.4408 21.6543 15.3174 21.4923 15.2094C21.3535 15.1169 21.1761 15.0321 20.9602 14.9549C20.752 14.8701 20.5129 14.8277 20.243 14.8277C19.7494 14.8277 19.3754 14.9395 19.1209 15.1632C18.8664 15.3791 18.7392 15.6336 18.7392 15.9266C18.7392 16.1503 18.8009 16.3354 18.9243 16.4819C19.0476 16.6207 19.2096 16.7402 19.4101 16.8405C19.6106 16.9408 19.8381 17.0256 20.0926 17.095C20.3471 17.1644 20.6093 17.2415 20.8792 17.3263C21.1491 17.4035 21.4113 17.4999 21.6658 17.6155C21.9203 17.7235 22.1478 17.8662 22.3483 18.0436C22.5488 18.2132 22.7108 18.4253 22.8342 18.6798C22.9576 18.9343 23.0193 19.2505 23.0193 19.6284C23.0193 19.9445 22.9499 20.2492 22.811 20.5422C22.6799 20.8276 22.491 21.0782 22.2442 21.2941C21.9974 21.5101 21.6928 21.6836 21.3304 21.8147C20.9756 21.9381 20.5746 21.9998 20.1273 21.9998Z" fill="white"/>
  <path d="M12.435 21.9998C11.926 21.9998 11.4633 21.9188 11.0468 21.7569C10.6304 21.5872 10.2718 21.3559 9.97102 21.0628C9.67026 20.762 9.43505 20.4073 9.26539 19.9986C9.10344 19.5898 9.02246 19.1387 9.02246 18.6451V13.7866H10.2949V18.6451C10.2949 18.9613 10.3489 19.2544 10.4569 19.5243C10.5648 19.7942 10.7152 20.0294 10.908 20.2299C11.1008 20.4227 11.3283 20.5731 11.5905 20.6811C11.8527 20.789 12.1342 20.843 12.435 20.843C12.7203 20.843 12.9941 20.7852 13.2563 20.6695C13.5185 20.5538 13.746 20.3996 13.9388 20.2068C14.1316 20.0063 14.2858 19.7711 14.4015 19.5011C14.5172 19.2312 14.575 18.9459 14.575 18.6451V13.7866H15.8475V18.6451C15.8475 19.1387 15.7626 19.5898 15.593 19.9986C15.431 20.4073 15.1997 20.762 14.8989 21.0628C14.5982 21.3559 14.2396 21.5872 13.8231 21.7569C13.4067 21.9188 12.944 21.9998 12.435 21.9998Z" fill="white"/>
  <path d="M4.2801 21.9998C3.67086 21.9998 3.10403 21.8918 2.57963 21.6759C2.06293 21.4599 1.61178 21.163 1.22619 20.7851C0.848307 20.4073 0.547544 19.9677 0.323899 19.4664C0.107966 18.9574 0 18.4137 0 17.8353C0 17.2569 0.107966 16.7171 0.323899 16.2158C0.547544 15.7068 0.848307 15.2634 1.22619 14.8855C1.61178 14.5076 2.06293 14.2107 2.57963 13.9948C3.10403 13.7789 3.67086 13.6709 4.2801 13.6709C4.83535 13.6709 5.31734 13.7519 5.72607 13.9138C6.1348 14.0758 6.47798 14.257 6.75561 14.4575C7.0718 14.6889 7.34557 14.9472 7.57693 15.2326L6.76718 16.0423C6.60523 15.8187 6.40086 15.6182 6.15408 15.4408C5.94586 15.2865 5.68366 15.1477 5.36747 15.0243C5.059 14.8932 4.69654 14.8277 4.2801 14.8277C3.86365 14.8277 3.47035 14.9048 3.10018 15.059C2.73772 15.2133 2.41768 15.4292 2.14005 15.7068C1.87013 15.9768 1.65805 16.2968 1.50382 16.667C1.34958 17.0294 1.27246 17.4189 1.27246 17.8353C1.27246 18.2518 1.34958 18.6451 1.50382 19.0153C1.65805 19.3777 1.87013 19.6978 2.14005 19.9754C2.41768 20.2453 2.73772 20.4574 3.10018 20.6116C3.47035 20.7659 3.86365 20.843 4.2801 20.843C4.69654 20.843 5.06285 20.7774 5.37904 20.6463C5.69523 20.5152 5.96129 20.3687 6.17722 20.2067C6.43171 20.0217 6.64764 19.8096 6.82502 19.5705L7.63476 20.3803C7.3957 20.681 7.11036 20.9509 6.77875 21.19C6.49341 21.3905 6.14251 21.5756 5.72607 21.7453C5.31734 21.9149 4.83535 21.9998 4.2801 21.9998Z" fill="white"/>
  <path d="M64.3641 8.32887C63.7548 8.32887 63.188 8.2209 62.6636 8.00497C62.1469 7.78904 61.6958 7.49213 61.3102 7.11424C60.9323 6.73636 60.6315 6.29678 60.4079 5.79551C60.1919 5.28652 60.084 4.74283 60.084 4.16443C60.084 3.58604 60.1919 3.04621 60.4079 2.54493C60.6315 2.03595 60.9323 1.59251 61.3102 1.21463C61.6958 0.836743 62.1469 0.539834 62.6636 0.3239C63.188 0.107967 63.7548 0 64.3641 0C64.9193 0 65.4013 0.0809752 65.8101 0.242926C66.2188 0.404876 66.562 0.586106 66.8396 0.786616C67.1558 1.01797 67.4296 1.27632 67.6609 1.56166L66.8512 2.37142C66.6892 2.14777 66.4848 1.94726 66.2381 1.76988C66.0298 1.61565 65.7676 1.47683 65.4515 1.35344C65.143 1.22234 64.7805 1.15679 64.3641 1.15679C63.9476 1.15679 63.5543 1.23391 63.1842 1.38815C62.8217 1.54238 62.5017 1.75832 62.224 2.03595C61.9541 2.30586 61.742 2.62591 61.5878 2.99608C61.4336 3.35854 61.3564 3.74799 61.3564 4.16443C61.3564 4.58088 61.4336 4.97419 61.5878 5.34436C61.742 5.70682 61.9541 6.02686 62.224 6.30449C62.5017 6.57441 62.8217 6.78649 63.1842 6.94073C63.5543 7.09496 63.9476 7.17208 64.3641 7.17208C64.7805 7.17208 65.1468 7.10653 65.463 6.97543C65.7792 6.84433 66.0453 6.6978 66.2612 6.53585C66.5157 6.35076 66.7316 6.13869 66.909 5.89962L67.7187 6.70937C67.4797 7.01013 67.1943 7.28005 66.8627 7.51912C66.5774 7.71963 66.2265 7.90472 65.8101 8.07438C65.4013 8.24404 64.9193 8.32887 64.3641 8.32887Z" fill="white"/>
  <path d="M52.9746 0.115723H56.2136C56.6069 0.115723 56.9694 0.18513 57.301 0.323944C57.6326 0.455047 57.9179 0.640133 58.157 0.879203C58.4038 1.11056 58.5927 1.38433 58.7238 1.70052C58.8626 2.01671 58.932 2.35603 58.932 2.71849C58.932 3.08095 58.8626 3.42028 58.7238 3.73647C58.5927 4.05266 58.4038 4.33029 58.157 4.56935C57.9179 4.80071 57.6326 4.9858 57.301 5.12461C56.9694 5.25571 56.6069 5.32127 56.2136 5.32127H54.2471V8.21323H52.9746V0.115723ZM56.2136 4.16448C56.4141 4.16448 56.6031 4.12977 56.7804 4.06037C56.9578 3.98325 57.112 3.87914 57.2431 3.74804C57.3742 3.61693 57.4745 3.46269 57.5439 3.28532C57.621 3.10795 57.6596 2.919 57.6596 2.71849C57.6596 2.51798 57.621 2.32904 57.5439 2.15167C57.4745 1.97429 57.3742 1.82006 57.2431 1.68895C57.112 1.55785 56.9578 1.4576 56.7804 1.38819C56.6031 1.31107 56.4141 1.27251 56.2136 1.27251H54.2471V4.16448H56.2136Z" fill="white"/>
  <path d="M44.991 8.32887C44.3818 8.32887 43.815 8.2209 43.2906 8.00497C42.7739 7.78904 42.3227 7.49213 41.9371 7.11424C41.5592 6.73636 41.2585 6.29678 41.0348 5.79551C40.8189 5.28652 40.7109 4.74283 40.7109 4.16443C40.7109 3.58604 40.8189 3.04621 41.0348 2.54493C41.2585 2.03595 41.5592 1.59251 41.9371 1.21463C42.3227 0.836743 42.7739 0.539834 43.2906 0.3239C43.815 0.107967 44.3818 0 44.991 0C45.5463 0 46.0283 0.0809752 46.437 0.242926C46.8457 0.404876 47.1889 0.586106 47.4665 0.786616C47.7827 1.01797 48.0565 1.27632 48.2879 1.56166L47.4781 2.37142C47.3162 2.14777 47.1118 1.94726 46.865 1.76988C46.6568 1.61565 46.3946 1.47683 46.0784 1.35344C45.7699 1.22234 45.4075 1.15679 44.991 1.15679C44.5746 1.15679 44.1813 1.23391 43.8111 1.38815C43.4487 1.54238 43.1286 1.75832 42.851 2.03595C42.5811 2.30586 42.369 2.62591 42.2148 2.99608C42.0605 3.35854 41.9834 3.74799 41.9834 4.16443C41.9834 4.58088 42.0605 4.97419 42.2148 5.34436C42.369 5.70682 42.5811 6.02686 42.851 6.30449C43.1286 6.57441 43.4487 6.78649 43.8111 6.94073C44.1813 7.09496 44.5746 7.17208 44.991 7.17208C45.3535 7.17208 45.6697 7.12967 45.9396 7.04484C46.2172 6.95229 46.4486 6.85204 46.6337 6.74407C46.8496 6.61297 47.0347 6.46644 47.1889 6.30449V5.08987H45.5116V3.93308H48.4614V6.76721C48.2146 7.06026 47.9177 7.32247 47.5707 7.55382C47.2776 7.75433 46.9151 7.93556 46.4833 8.09751C46.0514 8.25175 45.554 8.32887 44.991 8.32887Z" fill="white"/>
  <path d="M32.0361 0.115723H33.1929L37.6465 6.07318V0.115723H38.919V8.21323H37.7622L33.3086 2.25578V8.21323H32.0361V0.115723Z" fill="white"/>
  <path d="M28.4551 0.115723H29.7275V8.21323H28.4551V0.115723Z" fill="white"/>
  <path d="M17.7051 0.115723H18.8619L21.9273 4.0488L24.9928 0.115723H26.1496V8.21323H24.8771V2.25578L21.9273 6.01534L18.9775 2.25578V8.21323H17.7051V0.115723Z" fill="white"/>
  <path d="M11.7995 0.115723H13.1877L16.4267 8.21323H15.0964L14.2866 6.13102H10.7006L9.89085 8.21323H8.56055L11.7995 0.115723ZM13.8239 4.97423L12.4936 1.61955L11.1633 4.97423H13.8239Z" fill="white"/>
  <path d="M4.2801 8.32887C3.67086 8.32887 3.10403 8.2209 2.57963 8.00497C2.06293 7.78904 1.61178 7.49213 1.22619 7.11424C0.848307 6.73636 0.547544 6.29678 0.323899 5.79551C0.107966 5.28652 0 4.74283 0 4.16443C0 3.58604 0.107966 3.04621 0.323899 2.54493C0.547544 2.03595 0.848307 1.59251 1.22619 1.21463C1.61178 0.836743 2.06293 0.539834 2.57963 0.3239C3.10403 0.107967 3.67086 0 4.2801 0C4.83535 0 5.31734 0.0809752 5.72607 0.242926C6.1348 0.404876 6.47798 0.586106 6.75561 0.786616C7.0718 1.01797 7.34557 1.27632 7.57693 1.56166L6.76718 2.37142C6.60523 2.14777 6.40086 1.94726 6.15408 1.76988C5.94586 1.61565 5.68366 1.47683 5.36747 1.35344C5.059 1.22234 4.69654 1.15679 4.2801 1.15679C3.86365 1.15679 3.47035 1.23391 3.10018 1.38815C2.73772 1.54238 2.41768 1.75832 2.14005 2.03595C1.87013 2.30586 1.65805 2.62591 1.50382 2.99608C1.34958 3.35854 1.27246 3.74799 1.27246 4.16443C1.27246 4.58088 1.34958 4.97419 1.50382 5.34436C1.65805 5.70682 1.87013 6.02686 2.14005 6.30449C2.41768 6.57441 2.73772 6.78649 3.10018 6.94073C3.47035 7.09496 3.86365 7.17208 4.2801 7.17208C4.64255 7.17208 4.95874 7.12967 5.22866 7.04484C5.50628 6.95229 5.73764 6.85204 5.92273 6.74407C6.13866 6.61297 6.32374 6.46644 6.47798 6.30449V5.08987H4.80065V3.93308H7.75044V6.76721C7.50366 7.06026 7.20675 7.32247 6.85972 7.55382C6.56667 7.75433 6.20421 7.93556 5.77234 8.09751C5.34048 8.25175 4.84306 8.32887 4.2801 8.32887Z" fill="white"/>
</svg>